<?xml version="1.0" encoding="utf-8"?>
<!-- Generator: Adobe Illustrator 25.0.1, SVG Export Plug-In . SVG Version: 6.00 Build 0)  -->
<svg version="1.1" id="Layer_1" xmlns="http://www.w3.org/2000/svg" xmlns:xlink="http://www.w3.org/1999/xlink" x="0px" y="0px"
	 viewBox="0 0 512 512" style="enable-background:new 0 0 512 512;" xml:space="preserve">
<style type="text/css">
	.st0{fill:#FFFFFF;}
	.st1{fill:#C44E4E;}
</style>
<circle class="st0" cx="256" cy="256.5" r="210.1"/>
<circle class="st1" cx="256" cy="256.5" r="178.1"/>
<g id="Background">
</g>
<g id="background_white">
</g>
<g id="icon">
	<path class="st0" d="M289.5,297.4v69.5h-29.9v-65.4c0-2-1.6-3.7-3.7-3.7s-3.7,1.6-3.7,3.7v65.4h-29.9v-69.5c0-6.1,5-11.1,11.1-11.1
		h45.1C284.6,286.3,289.5,291.3,289.5,297.4z M350.3,262.6c-12.8,5.2-27.7,3.1-38.6-6.1c-1.4-1.2-3.4-1.2-4.8,0
		c-14,11.8-34.6,11.9-48.6,0c-1.4-1.2-3.4-1.2-4.8,0c-14,11.8-34.6,11.8-48.6,0c-1.4-1.2-3.4-1.2-4.8,0
		c-10.9,9.2-25.8,11.3-38.6,6.1c-2.4-1-5.1,0.8-5.1,3.4v82.5c0,10.2,8.2,18.4,18.4,18.4h40.1v-69.5c0-10.2,8.3-18.4,18.4-18.4h45.1
		c10.2,0,18.4,8.3,18.4,18.4v69.5h40.1c10.2,0,18.4-8.2,18.4-18.4V266C355.4,263.4,352.7,261.6,350.3,262.6L350.3,262.6z M173,208.5
		c-2.1,0-3.8-1.8-3.7-3.9c0.1-2,1.8-3.4,3.8-3.4h186.4c2.7,0,4.4-2.7,3.4-5.1l-20.8-47.9c-0.6-1.3-1.9-2.2-3.4-2.2H173
		c-1.5,0-2.8,0.9-3.4,2.2l-23.9,55.2c-0.4,1-0.3-0.5-0.3,24.3c0,16.8,13.7,30.4,30.4,30.4c10.4,0,19.7-5.3,25.2-13.4
		c0.7-1.1,2.3-1.1,3.1,0c12.1,17.9,38.3,17.8,50.4,0c0.7-1.1,2.3-1.1,3.1,0c12.1,17.8,38.2,17.8,50.3,0c0.7-1.1,2.3-1.1,3.1,0
		c5.5,8.2,15,13.5,25.6,13.4c16.7-0.2,30-14.1,30-30.9v-15c0-2-1.6-3.7-3.7-3.7L173,208.5L173,208.5z"/>
</g>
</svg>
