<?xml version="1.0" encoding="utf-8"?>
<!-- Generator: Adobe Illustrator 25.0.1, SVG Export Plug-In . SVG Version: 6.00 Build 0)  -->
<svg version="1.1" id="Layer_1" xmlns="http://www.w3.org/2000/svg" xmlns:xlink="http://www.w3.org/1999/xlink" x="0px" y="0px"
	 viewBox="0 0 512 512" style="enable-background:new 0 0 512 512;" xml:space="preserve">
<style type="text/css">
	.st0{fill:#FFFFFF;}
	.st1{fill:#F2B946;}
</style>
<g id="Background">
</g>
<g id="background_white">
</g>
<circle class="st0" cx="256" cy="256.5" r="210.1"/>
<circle class="st1" cx="256" cy="256.5" r="178.1"/>
<g id="Page-1">
	<g id="_x30_15---Veg-Stall" transform="translate(0 -1)">
		<path id="Shape" class="st0" d="M198.8,237.6h41.9c0,8.4-6.8,15.2-15.2,15.2H214C205.6,252.9,198.8,246,198.8,237.6z"/>
		<path id="Shape_1_" class="st0" d="M240.6,237.6h45.7c0,8.4-6.8,15.2-15.2,15.2h-15.2C247.4,252.9,240.6,246,240.6,237.6z"/>
		<path id="Shape_2_" class="st0" d="M286.3,237.6h41.9c0,8.4-6.8,15.2-15.2,15.2h-11.4C293.1,252.9,286.3,246,286.3,237.6z"/>
		<path id="Shape_3_" class="st0" d="M370,237.6c0,4-1.6,7.9-4.5,10.8c-1.9,1.9-4.3,3.3-7,4c-1.2,0.3-2.5,0.5-3.8,0.5h-11.4
			c-8.4,0-15.2-6.8-15.2-15.2h26.6c2.1,0,3.8-1.7,3.8-3.8s-1.7-3.8-3.8-3.8h-24.1l-6.7-16.6c-0.8-2-3-2.9-4.9-2.1s-2.9,3-2.1,4.9
			l5.5,13.8h-32.4v-3.8c0-2.1-1.7-3.8-3.8-3.8c-2.1,0-3.8,1.7-3.8,3.8v3.8h-38.1v-3.8c0-2.1-1.7-3.8-3.8-3.8s-3.8,1.7-3.8,3.8v3.8
			h-32.4l2.4-5.9c0.8-2-0.2-4.2-2.1-4.9c-2-0.8-4.2,0.2-4.9,2.1l-3.5,8.8h-24.1c-2.1,0-3.8,1.7-3.8,3.8s1.7,3.8,3.8,3.8h26.6
			c0,8.4-6.8,15.2-15.2,15.2h-11.4c-1.3,0-2.6-0.2-3.8-0.5c-2.6-0.7-5-2.1-7-4c-2.8-2.9-4.4-6.7-4.5-10.8c0-2.5,0.7-4.9,2.1-7
			l19-29.8c3.5-5.5,9.5-8.8,16-8.8h8.1c1.8,6.4,4.4,12.5,7.8,18.2l1.6,2.5l2.9,0.8c11.4,3.1,23.3,4.7,35.1,4.6
			c27.3-0.5,54.2-7.1,78.7-19.3c3-1.4,5.4-3.8,6.9-6.7c5.8,0.6,11,3.8,14.1,8.7l19,29.8C369.3,232.7,370,235.1,370,237.6L370,237.6z
			"/>
		<path id="Shape_4_" class="st0" d="M183.5,260.5V308c0,1.1-0.9,1.9-1.9,1.9h-11.4c-1.1,0-1.9-0.9-1.9-1.9v-47.9
			c1.3,0.2,2.5,0.3,3.8,0.3H183.5z"/>
		<path id="Shape_5_" class="st0" d="M358.6,260.2V308c0,1.1-0.9,1.9-1.9,1.9h-11.4c-1.1,0-1.9-0.9-1.9-1.9v-47.6h11.4
			C356.1,260.5,357.3,260.4,358.6,260.2z"/>
		<path id="Rectangle-path" class="st0" d="M160.7,317.5h205.5c4.2,0,7.6,3.4,7.6,7.6l0,0c0,4.2-3.4,7.6-7.6,7.6H160.7
			c-4.2,0-7.6-3.4-7.6-7.6l0,0C153.1,321,156.5,317.5,160.7,317.5z"/>
		<path id="Shape_6_" class="st0" d="M160.7,340.4h205.5v7.6c0,4.2-3.4,7.6-7.6,7.6H168.3c-4.2,0-7.6-3.4-7.6-7.6V340.4z"/>
		<path id="Shape_7_" class="st0" d="M327.8,181c-33.9-51.9-108-50-108-50c-7.3,9-11.8,20-13.1,31.5c-5.3-7.8-13.2-13.6-22.3-16.2
			c-2-0.5-4.1,0.7-4.6,2.8c-0.5,2,0.7,4.1,2.7,4.6c5.6,1.6,10.6,4.7,14.5,9c-11.1-1.9-28.5-2.1-39.4,11.5c-1.3,1.6-1,4,0.6,5.4
			s4,1,5.4-0.6c7.8-9.7,20.4-10.3,29.7-9.1c-1.8,1.2-3.4,2.5-4.9,4c-1,1-1.4,2.4-1,3.7c0.3,1.3,1.4,2.4,2.7,2.7s2.7,0,3.7-1
			c3.3-3.6,7.7-5.9,12.6-6.5h0.1c0.7,11.7,4.1,23,9.8,33.2c45.9,12.8,91.2-5.7,108.4-14.1c2-1,3.4-2.7,4-4.8
			C329.3,185.1,328.9,182.9,327.8,181L327.8,181z M244,155.6c-4.3,10-5.5,21.1-3.5,31.8c0.2,1,0,2-0.6,2.9c-0.6,0.8-1.4,1.4-2.4,1.6
			c-0.3,0-0.5,0.1-0.8,0.1c-1.8,0-3.4-1.3-3.7-3c-2.4-12.4-1-25.2,4.1-36.7c0.5-0.9,1.2-1.6,2.2-1.9s2-0.2,2.9,0.2
			C244.2,151.5,245,153.7,244,155.6L244,155.6z M266.9,163.2c-2.6,6.7-3.7,13.9-3.4,21.2c0,2.1-1.7,3.8-3.8,3.8
			c-2.1,0-3.8-1.7-3.8-3.8c-0.4-8.4,1.1-16.8,4.2-24.5c1-1.8,3.2-2.5,5-1.6C267,159.1,267.7,161.3,266.9,163.2z M289.7,170.8
			c-2,4.2-3.2,8.8-3.4,13.5c0,2.1-1.7,3.8-3.8,3.8c-2.1,0-3.8-1.7-3.8-3.8c0.2-5.9,1.7-11.6,4.2-16.9c0.5-0.9,1.2-1.6,2.2-1.9
			s2-0.2,2.9,0.2C289.9,166.7,290.6,169,289.7,170.8L289.7,170.8z"/>
		<path id="Shape_8_" class="st0" d="M252,283.3c0,26.6-3.8,34.3-19,34.3s-19-7.6-19-34.3c2.6,0.1,5.1,0.5,7.6,1.3
			c5.2,1.3,9.5,5.1,11.4,10.1c1.9-5,6.2-8.8,11.4-10.1C246.9,283.8,249.5,283.4,252,283.3z"/>
		<path id="Shape_9_" class="st0" d="M244.4,271.9v4.8c-0.7,0.2-1.5,0.4-2.2,0.6c-3.3,1-6.4,2.6-9.2,4.8c-2.7-2.1-5.8-3.7-9.1-4.8
			c-0.8-0.3-1.6-0.5-2.3-0.6v-4.8c0-6.3,5.1-11.4,11.4-11.4S244.4,265.6,244.4,271.9z"/>
		<path id="Shape_10_" class="st0" d="M312.9,283.3c0,26.6-3.8,34.3-19,34.3s-19-7.6-19-34.3c2.6,0.1,5.1,0.5,7.6,1.3
			c5.2,1.3,9.5,5.1,11.4,10.1c1.9-5,6.2-8.8,11.4-10.1C307.8,283.8,310.3,283.4,312.9,283.3z"/>
		<path id="Shape_11_" class="st0" d="M305.3,271.9v4.8c-0.7,0.2-1.5,0.4-2.2,0.6c-3.3,1-6.4,2.6-9.2,4.8c-2.7-2.1-5.8-3.7-9.1-4.8
			c-0.8-0.3-1.6-0.5-2.3-0.6v-4.8c0-6.3,5.1-11.4,11.4-11.4S305.3,265.6,305.3,271.9z"/>
	</g>
</g>
</svg>
