<?xml version="1.0" encoding="utf-8"?>
<!-- Generator: Adobe Illustrator 25.0.1, SVG Export Plug-In . SVG Version: 6.00 Build 0)  -->
<svg version="1.1" id="Layer_1" xmlns="http://www.w3.org/2000/svg" xmlns:xlink="http://www.w3.org/1999/xlink" x="0px" y="0px"
	 viewBox="0 0 512 512" style="enable-background:new 0 0 512 512;" xml:space="preserve">
<style type="text/css">
	.st0{fill:#FFFFFF;}
	.st1{fill:#4CC964;}
</style>
<g id="Background">
</g>
<g id="background_white">
</g>
<circle class="st0" cx="256" cy="256.5" r="210.1"/>
<circle class="st1" cx="256" cy="256.5" r="178.1"/>
<g>
	<path class="st0" d="M156.6,199.5c9,20.9,24.2,41.6,45.4,50.5c2.4,1,5.2,1.8,8,2.4c5.7-8.4,12.2-15.3,19.8-20.9
		c6.5-4.8,13.4-8.6,20.4-11.5c-2-1.4-4.1-2.7-6.4-3.9c-8.8-4.6-18.4-8.7-27.7-13.1c8.8,2.4,18.8,3.3,27.2,6.3
		c5.2,1.9,10.1,4.6,14.6,7.7c13.4-4.6,27.4-6.8,41.4-8.4c-11.3-18.9-35.6-34-53.8-40.8c-19.1-7.2-40.6-8-61.8-10.2
		c-13-1.3-27.1-6.2-37.4-11.9c-2.4-1.3-4.9,0.9-4,3.5C147.3,165.4,149.8,183.8,156.6,199.5z"/>
	<path class="st0" d="M380.6,197c-23.9,13-51.3,14.6-78.2,17.7c-13.1,1.5-26.1,3.4-38.5,7.1c-2.7,0.8-5.4,1.7-8,2.7
		c-7.8,3-15.3,6.9-22.4,12.1c-6.7,4.9-12.1,10.7-16.7,17.1c-7.3,10.2-12.4,22-16.6,34.2c-7.7,22.2-11.2,45.7-10.5,69.1
		c0.3,9.5,0.4,19.4,2.8,28.7c0.5,2,1,4.6,2.6,6.2c2.1,2,5.8-0.1,5-3c-6-20.5-2.3-44.4,6-64c9.6-22.5,28-35.9,50.5-44.1
		c6-2.2,12.1-4.1,18.3-5.9c0.1-0.1,0.3-0.1,0.4-0.1c1.2,0,1.8,1.8,0.5,2.4c-7.3,3.3-14.6,6.6-21.5,10.3
		c-33.9,17.7-48.7,58.9-36,58.9c1,0,2.2-0.3,3.6-0.9c19.6-8.1,42.9-8.2,64.5-12.2c7.6-1.4,15-3.3,21.9-6.2
		c27.5-11.5,47.2-33.9,58.9-60.9c8.7-20.1,12.1-43.9,18.7-64.8c0.9-2.7-1-5-3.4-5C381.8,196.5,381.2,196.6,380.6,197z"/>
</g>
</svg>
