<?xml version="1.0" ?><svg viewBox="0 0 32 32" xmlns="http://www.w3.org/2000/svg"><defs><style>.cls-1{fill:none;stroke:#000;stroke-linecap:round;stroke-linejoin:round;}.cls-2{fill:#ffc400;}.cls-3{fill:#ffab00;}.cls-4{fill:#76ff03;}.cls-5{fill:#59bf02;}</style></defs><title/><g data-name="Layer 3" id="Layer_3"><line class="cls-1" x1="11.52" x2="11.51" y1="6.79" y2="6.78"/><path class="cls-2" d="M23.48,15.83l-.17-.24a20.43,20.43,0,0,0-1.67-2c-1.84-1.91-3.61-2.87-5.29-2.88a4.68,4.68,0,0,1,0,.53v0A3.6,3.6,0,0,1,15.07,14a3.24,3.24,0,0,1-2,.62,4,4,0,0,1-.67-.06h-.08l-.53-.12c-.3,1.55.17,3.4,1.43,5.53a20.61,20.61,0,0,0,1.44,2.14l.2.25c3.94,4.92,10.67,6,11,6.07h.08a.54.54,0,0,0,.3-.1.52.52,0,0,0,.2-.34C26.45,27.73,27.19,20.93,23.48,15.83Z"/><path class="cls-3" d="M23.48,15.83c0,.08-.06.16-.1.25-1.9,5.51-7.76,6.21-8.23,6.26l-.27.05-.2-.25A20.61,20.61,0,0,1,13.24,20l.27-.28a.46.46,0,0,1,.31-.15c.23,0,5.52-.49,7.24-5.5a.53.53,0,0,1,.25-.28l.33-.17a20.43,20.43,0,0,1,1.67,2Z"/><path class="cls-4" d="M13.9,4.69a14.7,14.7,0,0,0-1-1.21.53.53,0,0,0-.42-.15.52.52,0,0,0-.37.24A9.57,9.57,0,0,0,11.16,6a9.93,9.93,0,0,0-2.44-.92.48.48,0,0,0-.4.09l6.92,8.7a3.64,3.64,0,0,0,1.11-2.57v0a4.68,4.68,0,0,0,0-.53A11.15,11.15,0,0,0,13.9,4.69Z"/><path class="cls-5" d="M8.12,5.54a10.4,10.4,0,0,0,.24,2.59,9.23,9.23,0,0,0-2.59.24.5.5,0,0,0-.33.29.51.51,0,0,0,0,.45,14.87,14.87,0,0,0,.88,1.31,10.88,10.88,0,0,0,5.46,4.05l.53.12h.08a4,4,0,0,0,.67.06,3.24,3.24,0,0,0,2-.62c.06,0,.11-.11.17-.17L8.32,5.17A.49.49,0,0,0,8.12,5.54Z"/></g></svg>