<?xml version="1.0" encoding="utf-8"?>
<!-- Generator: Adobe Illustrator 25.0.1, SVG Export Plug-In . SVG Version: 6.00 Build 0)  -->
<svg version="1.1" id="Layer_1" xmlns="http://www.w3.org/2000/svg" xmlns:xlink="http://www.w3.org/1999/xlink" x="0px" y="0px"
	 viewBox="0 0 512 512" style="enable-background:new 0 0 512 512;" xml:space="preserve">
<style type="text/css">
	.st0{fill:#FFFFFF;}
	.st1{fill:#455460;}
</style>
<g id="Background">
</g>
<g id="background_white">
</g>
<circle class="st0" cx="256" cy="256.5" r="210.1"/>
<circle class="st1" cx="256" cy="256.5" r="178.1"/>
<g>
	<path class="st0" d="M187.3,237.3v119.8c0,3.5,2.8,6.2,6.2,6.2s6.2-2.8,6.2-6.2V237.3c14.2-2.9,25-15.5,25-30.6v-50.4
		c0-3.5-2.8-6.2-6.2-6.2s-6.2,2.8-6.2,6.2v44.2h-12.5v-44.2c0-3.5-2.8-6.2-6.2-6.2s-6.2,2.8-6.2,6.2v44.2h-12.5v-44.2
		c0-3.5-2.8-6.2-6.2-6.2s-6.2,2.8-6.2,6.2v50.4C162.3,221.7,173,234.4,187.3,237.3L187.3,237.3z"/>
	<path class="st0" d="M262.2,274.8v82.3c0,3.5,2.8,6.2,6.2,6.2s6.2-2.8,6.2-6.2V156.2c0-2.2-1.1-4.2-3-5.3c-1.8-1.2-4.2-1.2-6.1-0.3
		c-17.6,8.8-28.5,26.8-28.5,46.5v47.1C237.3,259.2,248,271.9,262.2,274.8L262.2,274.8z"/>
	<path class="st0" d="M312.2,237v120c0,3.5,2.8,6.2,6.2,6.2s6.2-2.8,6.2-6.2V237c14.4-4,25-21.4,25-42.9c0-24.5-13.7-44.2-31.2-44.2
		c-17.5,0-31.2,19.6-31.2,44.2C287.2,215.7,297.8,233.1,312.2,237z"/>
</g>
</svg>
