<?xml version="1.0" encoding="utf-8"?>
<!-- Generator: Adobe Illustrator 25.0.1, SVG Export Plug-In . SVG Version: 6.00 Build 0)  -->
<svg version="1.1" id="Layer_1" xmlns="http://www.w3.org/2000/svg" xmlns:xlink="http://www.w3.org/1999/xlink" x="0px" y="0px"
	 viewBox="0 0 512 512" style="enable-background:new 0 0 512 512;" xml:space="preserve">
<style type="text/css">
	.st0{fill:#FFFFFF;}
	.st1{fill:#4A9CED;}
</style>
<g id="Background">
</g>
<g id="background_white">
</g>
<circle class="st0" cx="256" cy="256.5" r="210.1"/>
<circle class="st1" cx="256" cy="256.5" r="178.1"/>
<g>
	<g>
		<path class="st0" d="M230.5,270.2c1.6,4.8,6,8.1,11.1,8.1h82.1c5.2,0,9.9-3.5,11.3-8.6l15.1-54.6c1-3.5,0.3-7.3-2-10.2
			c-2.2-2.9-5.6-4.6-9.3-4.6H217.5l-11-15.3c-5.8-8-15-12.8-24.9-12.8h-11.5c-4.8,0-8.7,3.8-8.7,8.6c0,4.8,3.9,8.6,8.7,8.6h9.6
			c5.5,0,10.6,2.6,13.8,7.1l15.5,21.8v68c0,11,9,20,20,20h92.5c4.8,0,8.6-3.8,8.6-8.6c0-4.8-3.9-8.6-8.6-8.6h-90.2
			c-2.6,0-4.8-2.1-4.8-4.8V258L230.5,270.2z"/>
		<circle class="st0" cx="227.5" cy="327.8" r="13"/>
		<circle class="st0" cx="311.8" cy="327.8" r="13"/>
	</g>
</g>
</svg>
